<svg width="167" height="115" viewBox="0 0 167 115" fill="none" xmlns="http://www.w3.org/2000/svg">
<g clip-path="url(#clip0_2067_232730)">
<path d="M59.147 103.989C59.0291 103.995 58.9125 103.964 58.8128 103.9C58.7132 103.837 58.6353 103.744 58.5898 103.635C58.5443 103.526 58.5333 103.405 58.5584 103.29C58.5835 103.174 58.6434 103.069 58.73 102.988C58.7445 102.93 58.7549 102.889 58.7694 102.831C58.6567 102.543 58.4609 102.296 58.2073 102.121C57.9536 101.946 57.6537 101.851 57.3458 101.848C57.038 101.845 56.7363 101.934 56.4794 102.105C56.2225 102.275 56.0221 102.518 55.904 102.804C55.2221 104.406 54.3397 106.064 54.7786 107.829C51.8798 101.662 52.8656 93.9903 57.1496 88.7162C58.3337 88.0613 59.2935 86.898 59.5434 85.5471C58.9573 85.7464 58.2266 85.2679 58.6673 84.6482C58.8583 84.4114 59.0511 84.1764 59.2421 83.9396C57.0159 81.5596 54.3634 85.3001 56.8138 88.5123C56.0122 89.5212 55.3179 90.6114 54.7422 91.7652C54.8751 90.54 54.7164 89.3007 54.2791 88.1491C53.836 87.0758 53.0053 86.1719 52.2738 85.2441C51.3843 84.1136 49.5538 84.6351 49.4341 86.0698C50.2549 86.3406 50.3616 87.5309 49.4226 87.6938C49.6686 90.3627 51.4055 92.8154 53.7978 93.9858C52.9143 96.4742 52.5693 99.1229 52.7858 101.756C52.3636 98.6788 49.0735 97.9321 46.7739 96.7092C46.6275 96.615 46.457 96.5656 46.2831 96.567C46.1093 96.5684 45.9396 96.6205 45.7947 96.7171C45.6499 96.8137 45.5362 96.9505 45.4675 97.1108C45.3987 97.2711 45.378 97.4481 45.4077 97.6201C45.7251 97.7496 46.0289 97.9105 46.3146 98.1003C46.4485 98.1907 46.5513 98.3204 46.6088 98.4717C46.6664 98.623 46.6759 98.7884 46.6361 98.9454C46.5964 99.1023 46.5092 99.2431 46.3866 99.3483C46.264 99.4536 46.112 99.5182 45.9514 99.5333C47.1105 102.413 50.1074 104.347 53.1854 104.336C53.4812 105.626 53.9097 106.882 54.4642 108.084H59.0325C59.0489 108.033 59.0636 107.98 59.0784 107.929C58.6555 107.956 58.231 107.931 57.8143 107.854C58.933 106.524 59.7982 105.846 59.1471 103.989L59.147 103.989Z" fill="#FAFAFA"/>
<path d="M99.8749 103.989C99.9927 103.995 100.109 103.964 100.209 103.9C100.309 103.837 100.387 103.744 100.432 103.635C100.478 103.526 100.489 103.405 100.463 103.29C100.438 103.174 100.378 103.069 100.292 102.988C100.277 102.93 100.267 102.889 100.252 102.831C100.365 102.543 100.561 102.296 100.815 102.121C101.068 101.946 101.368 101.851 101.676 101.848C101.984 101.845 102.286 101.934 102.543 102.105C102.799 102.275 103 102.518 103.118 102.804C103.8 104.406 104.682 106.064 104.243 107.829C107.142 101.662 106.156 93.9903 101.872 88.7162C100.688 88.0613 99.7284 86.898 99.4785 85.5471C100.065 85.7464 100.795 85.2679 100.355 84.6482C100.164 84.4114 99.9708 84.1764 99.7798 83.9396C102.006 81.5596 104.658 85.3001 102.208 88.5123C103.01 89.5212 103.704 90.6114 104.28 91.7652C104.147 90.54 104.305 89.3007 104.743 88.1491C105.186 87.0758 106.017 86.1719 106.748 85.2441C107.638 84.1136 109.468 84.6351 109.588 86.0698C108.767 86.3406 108.66 87.5309 109.599 87.6938C109.353 90.3627 107.616 92.8154 105.224 93.9858C106.108 96.4742 106.453 99.1229 106.236 101.756C106.658 98.6788 109.948 97.9321 112.248 96.7092C112.394 96.615 112.565 96.5656 112.739 96.567C112.913 96.5684 113.082 96.6205 113.227 96.7171C113.372 96.8137 113.486 96.9505 113.554 97.1108C113.623 97.2711 113.644 97.4481 113.614 97.6201C113.297 97.7496 112.993 97.9105 112.707 98.1003C112.573 98.1907 112.471 98.3204 112.413 98.4717C112.355 98.623 112.346 98.7884 112.386 98.9454C112.426 99.1023 112.513 99.2431 112.635 99.3483C112.758 99.4536 112.91 99.5182 113.071 99.5333C111.911 102.413 108.914 104.347 105.837 104.336C105.541 105.626 105.112 106.882 104.558 108.084H99.9894C99.973 108.033 99.9583 107.98 99.9435 107.929C100.366 107.956 100.791 107.931 101.208 107.854C100.089 106.524 99.2238 105.846 99.8749 103.989Z" fill="#FAFAFA"/>
<path d="M101.569 104.67L99.6013 105.119L96.9385 97.7151L99.8422 97.0519L101.569 104.67Z" fill="#E0E0E0"/>
<path d="M102.105 106.715L96.0551 108.096L96.0377 108.02C95.8956 107.393 96.0075 106.735 96.3486 106.191C96.6897 105.646 97.2321 105.26 97.8566 105.118L98.7711 104.024L101.024 104.394L101.552 104.274L102.105 106.715Z" fill="#212121"/>
<path d="M133.305 68.5807L134.387 70.2905L128.332 75.2923L126.735 72.7687L133.305 68.5807Z" fill="#E0E0E0"/>
<path d="M135.044 67.3878L138.371 72.6456L138.304 72.6879C137.764 73.0325 137.109 73.1475 136.484 73.0074C135.859 72.8674 135.314 72.4838 134.971 71.9411L133.638 71.4433L133.23 69.1887L132.939 68.7297L135.044 67.3878Z" fill="#212121"/>
<path d="M70.5924 50.3009L70.1064 47.4737L77.4939 44.1249L79.0893 41.2895C79.0377 41.0406 79.0557 40.7824 79.1412 40.5432C79.2268 40.304 79.3765 40.0932 79.5739 39.934C79.7712 39.7749 80.0086 39.6736 80.2597 39.6414C80.5108 39.6092 80.7659 39.6472 80.9969 39.7514C81.2278 39.8556 81.4255 40.0218 81.5682 40.2317C81.7109 40.4416 81.7931 40.687 81.8056 40.9409C81.8181 41.1947 81.7604 41.447 81.639 41.67C81.5176 41.893 81.3372 42.078 81.1176 42.2046L78.4932 46.2776L70.5924 50.3009Z" fill="#E0E0E0"/>
<path d="M68.3467 47.9901L71.6734 46.2842L72.5541 49.6037L70.2433 51.3232L68.3467 47.9901Z" fill="#00884D"/>
<path d="M60.8823 104.412L62.8938 104.412L63.8507 96.6238L60.8818 96.6239L60.8823 104.412Z" fill="#E0E0E0"/>
<path d="M63.5624 104.595V103.226L63.0335 103.258L60.8809 103.386L60.3827 103.417L60.0018 108.002L59.9814 108.247H61.4097L61.4556 108.003L61.6631 106.894L62.1987 108.003L62.316 108.247H66.1027C66.328 108.246 66.5437 108.155 66.7028 107.995C66.862 107.835 66.9518 107.618 66.9528 107.392C67.1127 106.643 63.9636 105.023 63.5624 104.595Z" fill="#212121"/>
<path d="M37.0041 73.5032L36.5352 75.467L43.8569 78.2171L44.5489 75.319L37.0041 73.5032Z" fill="#E0E0E0"/>
<path d="M36.363 76.0777L37.6891 76.3969L37.781 75.8731L38.1589 73.742L38.2453 73.2485L33.8929 71.8077L33.6595 71.7305L33.3265 73.1247L33.5522 73.2265L34.5786 73.6876L33.379 73.9518L33.1152 74.0094L32.2323 77.7059C32.1811 77.9262 32.2186 78.1578 32.3366 78.3505C32.4546 78.5433 32.6436 78.6815 32.8625 78.7352C33.5511 79.0659 35.8544 76.3696 36.363 76.0777Z" fill="#212121"/>
<path d="M63.9921 54.0059L61.4029 52.791L56.2397 59.0634L53.0947 59.8619C52.8691 59.7465 52.6162 59.6959 52.3638 59.7158C52.1114 59.7356 51.8694 59.8251 51.6645 59.9743C51.4596 60.1236 51.2998 60.3268 51.2027 60.5615C51.1056 60.7962 51.075 61.0533 51.1143 61.3043C51.1536 61.5554 51.2613 61.7906 51.4255 61.9841C51.5896 62.1776 51.8038 62.3217 52.0445 62.4007C52.2851 62.4796 52.5428 62.4902 52.7891 62.4314C53.0354 62.3725 53.2606 62.2465 53.44 62.0671L58.0453 60.598L63.9921 54.0059Z" fill="#E0E0E0"/>
<path d="M100.699 30.7858C100.15 30.7858 99.6134 30.6224 99.1571 30.3164C98.7007 30.0103 98.3451 29.5752 98.135 29.0662C97.925 28.5573 97.8701 27.9972 97.9771 27.4568C98.0842 26.9165 98.3485 26.4202 98.7366 26.0306C99.1246 25.641 99.6191 25.3757 100.157 25.2682C100.696 25.1608 101.254 25.2159 101.761 25.4268C102.268 25.6376 102.701 25.9946 103.006 26.4527C103.311 26.9108 103.474 27.4493 103.474 28.0003C103.473 28.7388 103.18 29.4468 102.66 29.969C102.14 30.4912 101.434 30.785 100.699 30.7858ZM100.699 25.5344C100.213 25.5344 99.7379 25.679 99.334 25.95C98.93 26.2209 98.6152 26.606 98.4293 27.0566C98.2433 27.5072 98.1947 28.003 98.2895 28.4813C98.3843 28.9597 98.6182 29.399 98.9617 29.7439C99.3053 30.0888 99.743 30.3236 100.219 30.4188C100.696 30.5139 101.19 30.4651 101.639 30.2784C102.088 30.0918 102.471 29.7757 102.741 29.3702C103.011 28.9647 103.155 28.488 103.155 28.0003C103.154 27.3465 102.895 26.7197 102.435 26.2574C101.974 25.7952 101.35 25.5351 100.699 25.5344Z" fill="#E0E0E0"/>
<path d="M100.503 29.0499C100.498 29.0499 100.492 29.0497 100.486 29.0494C100.437 29.0471 100.389 29.034 100.345 29.0112C100.301 28.9883 100.263 28.9563 100.233 28.9172L99.7958 28.3531C99.7682 28.3174 99.7478 28.2767 99.7359 28.2332C99.724 28.1897 99.7207 28.1443 99.7263 28.0995C99.7318 28.0547 99.7461 28.0115 99.7684 27.9723C99.7906 27.9331 99.8203 27.8986 99.8558 27.8709L99.8715 27.8586C99.907 27.8309 99.9475 27.8105 99.9909 27.7985C100.034 27.7865 100.079 27.7832 100.124 27.7888C100.169 27.7944 100.212 27.8088 100.251 27.8311C100.29 27.8534 100.324 27.8833 100.352 27.9189C100.374 27.9474 100.402 27.9707 100.434 27.9873C100.466 28.0039 100.501 28.0134 100.537 28.0152C100.573 28.017 100.608 28.0109 100.642 27.9975C100.675 27.984 100.705 27.9635 100.73 27.9374L101.617 26.9968C101.68 26.9307 101.766 26.8922 101.857 26.8898C101.947 26.8873 102.035 26.921 102.101 26.9836L102.116 26.9975C102.148 27.0285 102.175 27.0657 102.193 27.1069C102.211 27.1481 102.221 27.1925 102.223 27.2376C102.224 27.2827 102.216 27.3276 102.2 27.3698C102.184 27.4119 102.16 27.4505 102.129 27.4832L100.752 28.9426C100.72 28.9765 100.681 29.0035 100.638 29.0219C100.596 29.0404 100.55 29.0499 100.503 29.0499Z" fill="#E0E0E0"/>
<path d="M86.8462 64.5107C86.2973 64.5107 85.7608 64.3473 85.3045 64.0412C84.8482 63.7351 84.4925 63.3001 84.2825 62.7911C84.0725 62.2821 84.0175 61.722 84.1246 61.1817C84.2317 60.6413 84.496 60.145 84.884 59.7554C85.2721 59.3659 85.7665 59.1006 86.3048 58.9931C86.8431 58.8856 87.401 58.9408 87.908 59.1516C88.4151 59.3624 88.8485 59.7195 89.1534 60.1776C89.4583 60.6356 89.621 61.1742 89.621 61.7251C89.6202 62.4636 89.3276 63.1717 88.8074 63.6939C88.2872 64.2161 87.5818 64.5098 86.8462 64.5107ZM86.8462 59.2592C86.3603 59.2592 85.8854 59.4039 85.4814 59.6748C85.0775 59.9458 84.7626 60.3309 84.5767 60.7815C84.3908 61.232 84.3421 61.7279 84.4369 62.2062C84.5317 62.6845 84.7657 63.1239 85.1092 63.4688C85.4527 63.8136 85.8904 64.0485 86.3669 64.1436C86.8434 64.2388 87.3373 64.1899 87.7862 64.0033C88.235 63.8167 88.6187 63.5006 88.8886 63.0951C89.1585 62.6896 89.3026 62.2128 89.3026 61.7251C89.3018 61.0714 89.0428 60.4446 88.5823 59.9823C88.1218 59.52 87.4974 59.26 86.8462 59.2592Z" fill="#E0E0E0"/>
<path d="M86.6506 62.7747C86.6451 62.7747 86.6395 62.7746 86.6339 62.7743C86.5846 62.7719 86.5365 62.7589 86.4927 62.736C86.4489 62.7132 86.4106 62.6811 86.3804 62.642L85.9432 62.0779C85.9156 62.0423 85.8953 62.0016 85.8834 61.9581C85.8714 61.9146 85.8682 61.8691 85.8737 61.8244C85.8793 61.7796 85.8936 61.7364 85.9158 61.6971C85.938 61.6579 85.9677 61.6235 86.0032 61.5958L86.0189 61.5835C86.0544 61.5558 86.095 61.5353 86.1383 61.5234C86.1817 61.5114 86.227 61.5081 86.2716 61.5137C86.3162 61.5193 86.3593 61.5337 86.3983 61.556C86.4374 61.5783 86.4717 61.6081 86.4993 61.6438C86.5214 61.6722 86.5493 61.6955 86.5812 61.7122C86.6131 61.7288 86.6482 61.7383 86.6841 61.7401C86.72 61.7418 86.7558 61.7358 86.7892 61.7223C86.8225 61.7089 86.8526 61.6884 86.8773 61.6622L87.7648 60.7216C87.8273 60.6556 87.9133 60.6171 88.004 60.6146C88.0947 60.6122 88.1827 60.6459 88.2487 60.7084L88.2632 60.7224C88.2959 60.7534 88.3221 60.7906 88.3404 60.8318C88.3587 60.873 88.3688 60.9174 88.37 60.9625C88.3712 61.0076 88.3636 61.0525 88.3475 61.0946C88.3314 61.1368 88.3072 61.1753 88.2763 61.2081L86.899 62.6674C86.867 62.7013 86.8285 62.7283 86.7858 62.7468C86.7431 62.7652 86.6971 62.7748 86.6506 62.7747Z" fill="#E0E0E0"/>
<path d="M56.435 26.9494C55.8862 26.9494 55.3497 26.7861 54.8934 26.48C54.4371 26.1739 54.0814 25.7389 53.8714 25.2299C53.6614 24.7209 53.6064 24.1608 53.7135 23.6205C53.8205 23.0801 54.0848 22.5838 54.4729 22.1942C54.861 21.8047 55.3554 21.5394 55.8937 21.4319C56.4319 21.3244 56.9899 21.3796 57.4969 21.5904C58.004 21.8012 58.4373 22.1583 58.7422 22.6163C59.0471 23.0744 59.2099 23.613 59.2099 24.1639C59.2091 24.9024 58.9165 25.6105 58.3962 26.1327C57.876 26.6549 57.1707 26.9486 56.435 26.9494ZM56.435 21.698C55.9492 21.698 55.4743 21.8427 55.0703 22.1136C54.6664 22.3846 54.3515 22.7697 54.1656 23.2203C53.9797 23.6708 53.931 24.1666 54.0258 24.645C54.1206 25.1233 54.3545 25.5627 54.6981 25.9075C55.0416 26.2524 55.4793 26.4873 55.9558 26.5824C56.4323 26.6775 56.9262 26.6287 57.3751 26.4421C57.8239 26.2554 58.2076 25.9394 58.4775 25.5339C58.7474 25.1284 58.8914 24.6516 58.8914 24.1639C58.8907 23.5101 58.6317 22.8834 58.1712 22.4211C57.7107 21.9588 57.0863 21.6988 56.435 21.698Z" fill="#E0E0E0"/>
<path d="M56.2395 25.2135C56.2339 25.2135 56.2284 25.2133 56.2228 25.2131C56.1735 25.2107 56.1253 25.1976 56.0816 25.1748C56.0378 25.152 55.9995 25.1199 55.9692 25.0808L55.5321 24.5167C55.5045 24.4811 55.4842 24.4404 55.4722 24.3969C55.4603 24.3534 55.457 24.3079 55.4626 24.2632C55.4682 24.2184 55.4825 24.1751 55.5047 24.1359C55.5269 24.0967 55.5566 24.0623 55.5921 24.0346L55.6078 24.0223C55.6433 23.9945 55.6839 23.9741 55.7272 23.9621C55.7706 23.9502 55.8158 23.9469 55.8604 23.9525C55.9051 23.9581 55.9481 23.9724 55.9872 23.9947C56.0263 24.0171 56.0606 24.0469 56.0882 24.0825C56.1103 24.111 56.1382 24.1343 56.1701 24.1509C56.202 24.1676 56.2371 24.1771 56.273 24.1788C56.3089 24.1806 56.3447 24.1745 56.378 24.1611C56.4114 24.1477 56.4415 24.1272 56.4662 24.101L57.3537 23.1604C57.4162 23.0944 57.5022 23.0559 57.5929 23.0534C57.6836 23.0509 57.7716 23.0847 57.8376 23.1472L57.8521 23.1612C57.8848 23.1922 57.911 23.2293 57.9293 23.2706C57.9476 23.3118 57.9577 23.3562 57.9589 23.4013C57.9601 23.4464 57.9524 23.4913 57.9364 23.5334C57.9203 23.5755 57.8961 23.6141 57.8652 23.6468L56.4879 25.1062C56.4559 25.1401 56.4174 25.1671 56.3747 25.1856C56.332 25.204 56.286 25.2135 56.2395 25.2135Z" fill="#E0E0E0"/>
<path d="M78.6508 74.8676C72.2162 74.8676 64.8213 67.6996 58.2786 71.1053C38.4691 81.4168 41.196 64.1621 35.5049 57.745L35.6917 57.3688C41.9712 63.021 49.8113 67.6198 58.3646 70.6677C66.0941 73.4224 73.8815 74.6987 80.8822 74.3619L80.8944 74.8141C80.155 74.8499 79.4072 74.8677 78.6508 74.8676Z" fill="#FAFAFA"/>
<path d="M69.8245 26.4041C70.5673 26.4041 71.1695 25.5935 71.1695 24.5936C71.1695 23.5937 70.5673 22.7831 69.8245 22.7831C69.0817 22.7831 68.4795 23.5937 68.4795 24.5936C68.4795 25.5935 69.0817 26.4041 69.8245 26.4041Z" fill="#E0E0E0"/>
<path d="M85.3593 54.6485C84.7444 55.0598 84.115 54.0809 84.7418 53.6879C85.3567 53.2766 85.986 54.2555 85.3593 54.6485Z" fill="#E0E0E0"/>
<path d="M81.8198 21.6938C82.7871 21.6938 83.5712 20.9067 83.5712 19.9357C83.5712 18.9647 82.7871 18.1775 81.8198 18.1775C80.8525 18.1775 80.0684 18.9647 80.0684 19.9357C80.0684 20.9067 80.8525 21.6938 81.8198 21.6938Z" fill="#00884D"/>
<path opacity="0.3" d="M87.9455 29.5701L97.9117 0.351013L86.9682 29.2203C86.9141 29.2888 86.877 29.3693 86.8601 29.4551C86.8431 29.5409 86.8468 29.6295 86.8708 29.7136C86.8948 29.7976 86.9384 29.8747 86.998 29.9385C87.0576 30.0023 87.1315 30.0509 87.2136 30.0802C87.2956 30.1096 87.3835 30.1189 87.4698 30.1074C87.5562 30.0958 87.6385 30.0638 87.7101 30.0139C87.7817 29.9641 87.8403 29.8978 87.8813 29.8206C87.9222 29.7434 87.9442 29.6575 87.9455 29.5701Z" fill="#EEEEEE"/>
<path d="M77.8857 65.1676C78.8268 65.1676 79.5897 64.4017 79.5897 63.457C79.5897 62.5123 78.8268 61.7464 77.8857 61.7464C76.9446 61.7464 76.1816 62.5123 76.1816 63.457C76.1816 64.4017 76.9446 65.1676 77.8857 65.1676Z" fill="#FAFAFA"/>
<path d="M61.382 64.1089C61.382 64.1089 57.1338 66.8857 58.2571 68.7309C58.2959 68.7946 53.1828 75.5736 53.1828 75.5736L43.5305 74.9585L43.1904 78.2016L51.7836 80.6999C51.7836 80.6999 53.8858 82.2503 55.5098 80.5421C57.1338 78.8339 62.5433 73.6028 62.5433 73.6028L62.8042 84.1642L60.0887 98.799L64.1433 98.5409L68.0896 83.8585L69.5463 67.2271L61.382 64.1089Z" fill="#212121"/>
<path d="M64.4079 47.4433L62.6215 48.8023L60.5854 53.1647L62.5433 55.8341C62.5433 55.8341 64.1902 58.6994 61.5541 61.4742C58.9179 64.2491 56.8935 67.2127 59.0035 67.1069C61.1136 67.0011 69.6594 71.3644 69.7157 67.7897C69.7719 64.2149 69.8857 61.4742 69.8857 61.4742L72.1262 55.7696C72.1262 55.7696 73.4611 52.3665 72.5239 51.3478C71.5867 50.3291 70.3319 49.0274 70.3319 49.0274L68.0499 46.7366H65.9894L64.4079 47.4433Z" fill="#00884D"/>
<path d="M67.742 39.0615C71.7497 41.3508 68.4596 47.3911 64.3772 45.2402C60.3696 42.951 63.6597 36.9107 67.742 39.0615Z" fill="#E0E0E0"/>
<path d="M69.8854 40.3313C69.6046 40.6979 69.0179 40.526 67.869 40.7876C67.8715 40.3967 67.8266 40.0069 67.735 39.6269C67.6496 40.0974 67.4622 40.5433 67.1863 40.9331C66.1886 41.0442 67.4116 44.0866 66.9008 46.3235C66.2427 41.6044 64.8584 42.8408 65.5577 43.7768C66.0054 44.376 65.7069 46.1737 64.3638 45.2749C62.1478 46.3321 58.9915 41.0803 62.4897 38.6172C62.4272 37.2859 63.9028 37.0756 64.8115 37.4849C67.0169 35.8358 69.5364 37.9489 69.8854 40.3313Z" fill="#212121"/>
<path d="M59.6029 36.8879C58.7107 42.3949 53.9283 35.8751 51.6796 41.2946C50.9726 43.2572 52.1856 44.6612 52.9529 46.2902C53.1281 47.629 51.3931 48.3082 51.2114 49.5406C51.1608 52.3658 55.7014 52.1929 56.9707 50.4105C58.275 48.5445 56.7175 46.041 57.5015 44.0381C58.6033 41.2574 63.0844 41.2368 63.4747 38.0017C62.7187 36.9209 60.6858 35.6831 59.6029 36.8879Z" fill="#212121"/>
<path d="M63.2174 37.4256C63.1882 37.438 63.159 37.4503 63.1329 37.4642H63.1314C63.1068 37.4765 63.0822 37.4889 63.0577 37.5027C63.0546 37.5043 63.053 37.5058 63.05 37.5074C63.0177 37.4765 62.9855 37.4457 62.9516 37.4148C62.9429 37.4651 62.945 37.5166 62.9578 37.566L62.9624 37.5845C62.9931 37.6169 63.0254 37.6477 63.0592 37.6801C63.0899 37.657 63.1191 37.6323 63.1498 37.6092C63.1683 37.5937 63.1867 37.5783 63.2067 37.5629C63.2097 37.5228 63.2144 37.4765 63.219 37.4256L63.2174 37.4256ZM64.1423 35.7107C63.4571 35.5534 63.2359 36.4525 63.1698 36.8859C62.9209 35.3128 61.8855 35.8079 62.2434 36.8812C62.3575 37.199 62.5371 37.4891 62.7704 37.7325C62.8026 37.7695 62.838 37.8065 62.8748 37.8436C62.8333 38.0595 63.0423 38.004 63.325 37.805C63.5337 37.656 63.7267 37.486 63.9011 37.2976C64.4649 36.7039 64.9043 35.9096 64.1423 35.7107ZM64.1638 36.5959C63.9524 36.8696 63.7152 37.1221 63.4556 37.3501C63.3741 37.4241 63.2912 37.495 63.2067 37.5629C63.2051 37.5768 63.2051 37.5891 63.2036 37.5999C63.1977 37.6149 63.1905 37.6293 63.1821 37.6431C63.0961 37.7988 62.9993 37.714 62.9624 37.5845C62.9593 37.5798 62.9547 37.5752 62.9516 37.5706C62.8289 37.4433 62.7221 37.3014 62.6336 37.148C61.9991 36.0438 63.0208 35.2928 62.9701 37.3547C62.9607 37.3736 62.9545 37.3939 62.9516 37.4148C62.9429 37.4651 62.945 37.5166 62.9578 37.566L62.9624 37.5845C62.9931 37.6169 63.0254 37.6477 63.0592 37.6801C63.0899 37.657 63.1191 37.6323 63.1498 37.6092C63.1683 37.5937 63.1867 37.5783 63.2067 37.5629C63.2097 37.5228 63.2144 37.4765 63.219 37.4256V37.4241C63.2589 37.0108 63.368 36.2674 63.5693 36.0654C64.0117 35.7246 64.5847 36.0932 64.1638 36.5959ZM63.2174 37.4256C63.1882 37.438 63.159 37.4503 63.1329 37.4642H63.1314C63.1068 37.4765 63.0822 37.4889 63.0577 37.5027C63.0546 37.5043 63.053 37.5058 63.05 37.5074C63.0177 37.4765 62.9855 37.4457 62.9516 37.4148C62.9429 37.4651 62.945 37.5166 62.9578 37.566L62.9624 37.5845C62.9931 37.6169 63.0254 37.6477 63.0592 37.6801C63.0899 37.657 63.1191 37.6323 63.1498 37.6092C63.1683 37.5937 63.1867 37.5783 63.2067 37.5629C63.2097 37.5228 63.2144 37.4765 63.219 37.4256L63.2174 37.4256Z" fill="#212121"/>
<path d="M100.259 67.788L98.7793 71.6629L91.8359 85.4119L97.937 101.406L101.086 100.572L98.4905 85.4119L105.936 76.3301L114.779 82.3505C114.779 82.3505 118.7 85.4239 120.192 82.5104C121.684 79.5969 131.338 73.3998 131.338 73.3998L128.95 70.8425L117.833 76.0649L110.16 65.2237L100.259 67.788Z" fill="#212121"/>
<path d="M107.727 49.5099L105.291 46.8821L101.111 46.3049L95.9902 49.9038L96.0418 53.8874L98.5734 63.2743C98.5734 63.2743 97.6091 70.0183 100.303 69.9507C102.996 69.883 104.464 68.5351 105.561 68.8095C106.658 69.0839 111.321 70.2517 111.617 69.0285C111.912 67.8052 113.483 68.6811 113.414 67.5239C113.345 66.3667 109.162 58.0255 109.162 58.0255L110.202 49.6834L107.727 49.5099Z" fill="#00884D"/>
<path d="M123.155 37.4134C123.176 37.6313 123.15 37.8514 123.078 38.0581C123.006 38.2648 122.89 38.4532 122.737 38.6099C122.585 38.7666 122.4 38.8878 122.196 38.965C121.992 39.0423 121.773 39.0736 121.556 39.0569L115.953 49.754L114.448 47.4359L120.175 37.3401C120.228 36.9751 120.411 36.642 120.692 36.4039C120.972 36.1658 121.33 36.0393 121.697 36.0484C122.065 36.0574 122.416 36.2013 122.684 36.4529C122.953 36.7045 123.12 37.0463 123.155 37.4134Z" fill="#E0E0E0"/>
<path d="M105.515 51.4986C105.515 51.4986 105.293 53.4014 107.427 53.8725C109.561 54.3435 115.473 50.9524 116.442 50.4345C116.746 50.2723 117.157 49.4773 117.58 48.4618C117.77 48.0059 117.962 47.5055 118.147 46.9979C118.254 46.7042 118.767 46.624 118.868 46.3328C118.968 46.0431 118.657 45.5422 118.748 45.2692C119.179 43.9733 119.485 42.9452 119.485 42.9452L118.071 40.2783C116.093 41.3281 115.078 43.6403 114.332 46.3043L105.515 51.4986Z" fill="#00884D"/>
<path d="M80.5942 39.8703C80.6274 40.0867 80.7075 40.2933 80.8289 40.4753C80.9502 40.6573 81.1098 40.8104 81.2965 40.9239C81.4831 41.0373 81.6923 41.1082 81.9092 41.1317C82.1261 41.1552 82.3455 41.1306 82.552 41.0598L90.6436 50.0089L91.5221 47.3866L83.4604 39.0509C83.3188 38.7106 83.0578 38.4343 82.7269 38.2742C82.3959 38.1142 82.018 38.0816 81.6647 38.1826C81.3114 38.2836 81.0073 38.5112 80.81 38.8222C80.6127 39.1333 80.5359 39.5062 80.5942 39.8703Z" fill="#E0E0E0"/>
<path d="M101.183 49.0762C101.183 49.0762 101.873 50.8626 99.924 51.8547C97.9755 52.8469 91.4062 51.0489 90.3388 50.7909C90.0045 50.7101 89.4076 50.0439 88.7453 49.1668C88.448 48.7731 88.1375 48.3368 87.8317 47.8919C87.6547 47.6345 87.1379 47.6858 86.9675 47.4292C86.798 47.1739 86.975 46.6107 86.8188 46.3692C86.0778 45.223 85.5254 44.3045 85.5254 44.3045L86.2298 41.3671C88.4066 41.8865 89.9653 43.8704 91.3519 46.2621L101.183 49.0762Z" fill="#00884D"/>
<path d="M103.284 45.6369C105.481 45.6369 107.261 43.8496 107.261 41.6449C107.261 39.4401 105.481 37.6528 103.284 37.6528C101.088 37.6528 99.3076 39.4401 99.3076 41.6449C99.3076 43.8496 101.088 45.6369 103.284 45.6369Z" fill="#E0E0E0"/>
<path d="M107.824 39.3588C107.406 38.7091 106.621 38.2761 105.86 38.3978C105.789 37.9103 105.586 37.4516 105.274 37.0717C104.961 36.6919 104.551 36.4053 104.087 36.2434C103.624 36.0814 103.125 36.0502 102.645 36.1531C102.165 36.2561 101.722 36.4892 101.365 36.8272C101.248 36.7442 101.111 36.6931 100.968 36.6787C100.825 36.6643 100.681 36.6873 100.549 36.7453C100.287 36.8648 100.06 37.0484 99.8867 37.2793C99.45 37.8259 99.1692 38.4812 99.0741 39.1753C98.979 39.8695 99.0732 40.5766 99.3466 41.2213C99.2536 40.8819 99.5924 40.5626 99.9348 40.4864C100.277 40.4102 100.636 40.4823 100.983 40.4327C101.428 40.3691 101.828 40.11 102.274 40.0517C102.652 40.027 103.031 40.0759 103.39 40.1957C103.75 40.3155 104.128 40.3665 104.506 40.3462C104.881 40.3014 105.365 41.7284 105.358 42.7334C105.357 42.9239 105.396 43.1684 105.581 43.2088C105.81 43.2586 105.942 42.9422 106.159 42.856C106.26 42.8272 106.367 42.8385 106.459 42.8877C106.551 42.9368 106.62 43.0198 106.653 43.1193C106.68 43.2204 106.683 43.3267 106.661 43.4292C106.639 43.5317 106.594 43.6275 106.527 43.7086C106.394 43.8694 106.235 44.0075 106.058 44.1176L106.147 44.1923C106.232 44.2824 106.346 44.3401 106.468 44.3554C106.591 44.3707 106.715 44.3427 106.82 44.2762C107.025 44.1366 107.191 43.9467 107.302 43.7244C107.722 43.0732 108.022 42.3518 108.188 41.5945C108.328 40.8339 108.242 40.0084 107.824 39.3588Z" fill="#212121"/>
<path d="M137.244 55.1039C132.114 59.0038 121.908 57.7718 118.741 64.4521C109.151 84.6783 100.947 69.2708 92.551 67.6046L92.4736 67.1915C100.879 67.8913 109.895 66.8055 118.546 64.0512C126.365 61.5623 133.34 57.8599 138.718 53.3484L139 53.7015C138.432 54.1781 137.847 54.6456 137.244 55.1039Z" fill="#FAFAFA"/>
</g>
<defs>
<clipPath id="clip0_2067_232730">
<rect width="110" height="108" fill="white" transform="translate(29 0.351013)"/>
</clipPath>
</defs>
</svg>
