<svg width="67" height="31" viewBox="0 0 67 31" fill="none" xmlns="http://www.w3.org/2000/svg">
<mask id="mask0_6337_722" style="mask-type:alpha" maskUnits="userSpaceOnUse" x="0" y="5" width="19" height="20">
<rect y="5.80615" width="19" height="19" fill="#D9D9D9"/>
</mask>
<g mask="url(#mask0_6337_722)">
<path d="M9.50033 21.6395C8.76144 21.6395 8.06543 21.5241 7.4123 21.2932C6.75918 21.0622 6.16213 20.7357 5.62116 20.3135L4.51283 21.402C4.36769 21.5471 4.18296 21.6197 3.95866 21.6197C3.73435 21.6197 3.54963 21.5471 3.40449 21.402C3.25935 21.2569 3.18678 21.0721 3.18678 20.8478C3.18678 20.6235 3.25935 20.4388 3.40449 20.2937L4.49303 19.2051C4.07081 18.6642 3.74425 18.0638 3.51335 17.4041C3.28244 16.7444 3.16699 16.0451 3.16699 15.3062C3.16699 13.5381 3.78053 12.0405 5.00762 10.8135C6.2347 9.58638 7.73227 8.97284 9.50033 8.97284H15.8337V15.3062C15.8337 17.0742 15.2201 18.5718 13.993 19.7989C12.766 21.026 11.2684 21.6395 9.50033 21.6395ZM9.50033 20.0562C10.8198 20.0562 11.9413 19.5944 12.8649 18.6708C13.7885 17.7471 14.2503 16.6256 14.2503 15.3062V10.5562H9.50033C8.18088 10.5562 7.05935 11.018 6.13574 11.9416C5.21213 12.8652 4.75033 13.9867 4.75033 15.3062C4.75033 15.8208 4.82949 16.3122 4.98783 16.7807C5.14616 17.2491 5.36387 17.6746 5.64095 18.0572L9.73783 13.9603C9.88296 13.8152 10.0677 13.7426 10.292 13.7426C10.5163 13.7426 10.701 13.8152 10.8462 13.9603C11.0045 14.1187 11.0837 14.3067 11.0837 14.5244C11.0837 14.7421 11.0045 14.9301 10.8462 15.0885L6.74928 19.1853C7.13192 19.4624 7.55744 19.6768 8.02585 19.8286C8.49425 19.9803 8.98574 20.0562 9.50033 20.0562Z" fill="#00884D"/>
</g>
<path opacity="0.87" d="M30.344 16.8982L29.088 13.3462C29.0133 13.1595 28.9333 12.9408 28.848 12.6902C28.768 12.4395 28.6907 12.1675 28.616 11.8742C28.5413 12.1728 28.4613 12.4502 28.376 12.7062C28.296 12.9568 28.2187 13.1755 28.144 13.3622L26.896 16.8982H30.344ZM34.376 21.3062H32.512C32.304 21.3062 32.1333 21.2582 32 21.1622C31.872 21.0608 31.776 20.9328 31.712 20.7782L30.928 18.5622H26.304L25.52 20.7782C25.4667 20.9115 25.3733 21.0342 25.24 21.1462C25.1067 21.2528 24.9387 21.3062 24.736 21.3062H22.856L27.392 9.69815H29.848L34.376 21.3062ZM40.9116 14.8982C40.8476 14.9835 40.7836 15.0502 40.7196 15.0982C40.6556 15.1408 40.565 15.1622 40.4476 15.1622C40.341 15.1622 40.237 15.1328 40.1356 15.0742C40.0396 15.0102 39.9276 14.9435 39.7996 14.8742C39.6716 14.7995 39.5196 14.7328 39.3436 14.6742C39.1676 14.6102 38.949 14.5782 38.6876 14.5782C38.357 14.5782 38.069 14.6395 37.8236 14.7622C37.5836 14.8795 37.3836 15.0502 37.2236 15.2742C37.0636 15.4982 36.9436 15.7702 36.8636 16.0902C36.789 16.4102 36.7516 16.7702 36.7516 17.1702C36.7516 18.0128 36.9196 18.6582 37.2556 19.1062C37.597 19.5542 38.061 19.7782 38.6476 19.7782C38.8503 19.7782 39.0236 19.7622 39.1676 19.7302C39.317 19.6928 39.445 19.6475 39.5516 19.5942C39.6636 19.5408 39.7596 19.4822 39.8396 19.4182C39.9196 19.3542 39.9943 19.2955 40.0636 19.2422C40.1383 19.1888 40.2103 19.1462 40.2796 19.1142C40.3543 19.0768 40.437 19.0582 40.5276 19.0582C40.6983 19.0582 40.8316 19.1222 40.9276 19.2502L41.5596 20.0502C41.325 20.3222 41.0743 20.5488 40.8076 20.7302C40.541 20.9062 40.2636 21.0475 39.9756 21.1542C39.693 21.2555 39.405 21.3248 39.1116 21.3622C38.8183 21.4048 38.5276 21.4262 38.2396 21.4262C37.733 21.4262 37.253 21.3328 36.7996 21.1462C36.3463 20.9542 35.949 20.6768 35.6076 20.3142C35.2663 19.9515 34.9943 19.5062 34.7916 18.9782C34.5943 18.4502 34.4956 17.8475 34.4956 17.1702C34.4956 16.5675 34.5836 16.0075 34.7596 15.4902C34.9356 14.9728 35.1943 14.5248 35.5356 14.1462C35.877 13.7675 36.2983 13.4715 36.7996 13.2582C37.3063 13.0395 37.8903 12.9302 38.5516 12.9302C39.181 12.9302 39.733 13.0315 40.2076 13.2342C40.6823 13.4368 41.109 13.7302 41.4876 14.1142L40.9116 14.8982ZM42.6776 21.3062V13.0582H44.0376C44.315 13.0582 44.499 13.1862 44.5896 13.4422L44.7176 13.9782C44.8616 13.8288 45.0083 13.6902 45.1576 13.5622C45.3123 13.4342 45.4776 13.3248 45.6536 13.2342C45.8296 13.1382 46.019 13.0635 46.2216 13.0102C46.4296 12.9568 46.6536 12.9302 46.8936 12.9302C47.4003 12.9302 47.819 13.0662 48.1496 13.3382C48.4803 13.6048 48.731 13.9622 48.9016 14.4102C49.035 14.1488 49.1976 13.9248 49.3896 13.7382C49.587 13.5462 49.8003 13.3915 50.0296 13.2742C50.2643 13.1568 50.5096 13.0715 50.7656 13.0182C51.027 12.9595 51.2883 12.9302 51.5496 12.9302C52.0136 12.9302 52.4243 12.9995 52.7816 13.1382C53.139 13.2768 53.4376 13.4822 53.6776 13.7542C53.923 14.0208 54.1096 14.3488 54.2376 14.7382C54.3656 15.1275 54.4296 15.5702 54.4296 16.0662V21.3062H52.2216V16.0662C52.2216 15.1008 51.8083 14.6182 50.9816 14.6182C50.795 14.6182 50.6216 14.6502 50.4616 14.7142C50.307 14.7728 50.1683 14.8635 50.0456 14.9862C49.9283 15.1088 49.835 15.2608 49.7656 15.4422C49.7016 15.6235 49.6696 15.8315 49.6696 16.0662V21.3062H47.4616V16.0662C47.4616 15.5435 47.3576 15.1728 47.1496 14.9542C46.947 14.7302 46.6456 14.6182 46.2456 14.6182C45.9896 14.6182 45.747 14.6795 45.5176 14.8022C45.2936 14.9195 45.083 15.0848 44.8856 15.2982V21.3062H42.6776ZM61.4096 16.2102C61.4096 15.9808 61.3776 15.7622 61.3136 15.5542C61.255 15.3462 61.159 15.1622 61.0256 15.0022C60.8923 14.8422 60.7243 14.7168 60.5216 14.6262C60.319 14.5302 60.0763 14.4822 59.7936 14.4822C59.2656 14.4822 58.8523 14.6315 58.5536 14.9302C58.255 15.2288 58.0603 15.6555 57.9696 16.2102H61.4096ZM57.9376 17.5222C58.007 18.2955 58.2256 18.8608 58.5936 19.2182C58.967 19.5755 59.4523 19.7542 60.0496 19.7542C60.3536 19.7542 60.615 19.7195 60.8336 19.6502C61.0576 19.5755 61.2523 19.4955 61.4176 19.4102C61.5883 19.3195 61.7403 19.2395 61.8736 19.1702C62.0123 19.0955 62.1483 19.0582 62.2816 19.0582C62.4523 19.0582 62.5856 19.1222 62.6816 19.2502L63.3216 20.0502C63.087 20.3222 62.8283 20.5488 62.5456 20.7302C62.263 20.9062 61.9696 21.0475 61.6656 21.1542C61.3616 21.2555 61.055 21.3248 60.7456 21.3622C60.4363 21.4048 60.1376 21.4262 59.8496 21.4262C59.2736 21.4262 58.735 21.3328 58.2336 21.1462C57.7376 20.9542 57.303 20.6742 56.9296 20.3062C56.5616 19.9328 56.271 19.4715 56.0576 18.9222C55.8443 18.3728 55.7376 17.7355 55.7376 17.0102C55.7376 16.4502 55.8283 15.9222 56.0096 15.4262C56.1963 14.9302 56.463 14.4982 56.8096 14.1302C57.1563 13.7622 57.5776 13.4715 58.0736 13.2582C58.5696 13.0395 59.1296 12.9302 59.7536 12.9302C60.2816 12.9302 60.767 13.0155 61.2096 13.1862C61.6576 13.3515 62.0416 13.5942 62.3616 13.9142C62.687 14.2342 62.9376 14.6288 63.1136 15.0982C63.295 15.5622 63.3856 16.0928 63.3856 16.6902C63.3856 16.8555 63.3776 16.9915 63.3616 17.0982C63.3456 17.2048 63.319 17.2902 63.2816 17.3542C63.2443 17.4182 63.1936 17.4635 63.1296 17.4902C63.0656 17.5115 62.983 17.5222 62.8816 17.5222H57.9376Z" fill="#212121"/>
</svg>
